<?xml version="1.0" encoding="UTF-8"?>
<svg id="Layer_2" data-name="Layer 2" xmlns="http://www.w3.org/2000/svg" viewBox="0 0 250 186.04">
  <defs>
    <style>
      .cls-1 {
        fill: #fff;
      }

      .cls-1, .cls-2 {
        stroke-width: 0px;
      }

      .cls-2 {
        fill: #006983;
      }
    </style>
  </defs>
  <g id="Layer_1-2" data-name="Layer 1">
    <g>
      <rect class="cls-2" width="250" height="186.04"/>
      <g>
        <rect class="cls-1" x="123.97" y="11.96" width=".75" height="162.11"/>
        <polyline class="cls-1" points="173.03 44.43 66.14 151.31 66.68 151.84 173.56 44.96 173.03 44.43"/>
        <path class="cls-1" d="m100.49,102.09h3.17v-13.9l8.59-14.04c.54-.95,1.18-1.18,2.09-1.18h.73v-2.81h-1.23c-2.18,0-3,.32-4.36,2.54l-5.41,9.04c-1,1.68-1.95,3.59-1.95,3.59h-.09s-.95-1.91-1.95-3.59l-5.41-9.04c-1.36-2.22-2.18-2.54-4.36-2.54h-1.23v2.81h.73c.95,0,1.55.23,2.14,1.18l8.54,14.04v13.9m-45.4,0h3.77l6.54-22.26c.59-2.05,1.14-4.68,1.14-4.68h.09s.5,2.68,1.05,4.73l5.95,22.22h3.77l7.36-28.13c.23-.86.77-1,1.68-1h.5v-2.81h-1.41c-2.27,0-3.32.41-3.86,2.63l-5.54,22.04c-.41,1.64-.73,3.41-.73,3.41h-.09s-.27-1.77-.73-3.41l-6.4-24.54h-3.13l-7.04,24.54c-.45,1.64-.87,3.41-.87,3.41h-.09s-.27-1.77-.68-3.41l-5.54-22.04c-.55-2.22-1.59-2.63-3.86-2.63h-1.41v2.81h.55c.87,0,1.45.14,1.68,1l7.32,28.13Zm-28.22-3.81v-11.55h7.77c3.73,0,6.27,2.5,6.27,6.32s-2.36,6.23-6.23,6.23h-6.82c-.63,0-1-.32-1-1Zm0-14.27v-11.05h7.37c3.37,0,5.45,2.18,5.45,5.46s-2.18,5.59-5.41,5.59h-7.41Zm-3.17,15.31c0,1.95.82,2.77,2.77,2.77h8.23c5.37,0,9.54-3.27,9.54-8.95,0-3.86-2.09-7-5.36-7.9v-.09c2.32-1.13,4.08-3.45,4.08-6.95,0-5-3.63-8.04-8.63-8.04h-13.59v2.81h2.95v26.36Z"/>
        <path class="cls-1" d="m190.58,147.44l1.06-2.89c.14-.38.31-1.05.31-1.05h.02s.17.67.31,1.05l1.07,2.89h-2.78m-2.26,3.29h.38c.58,0,.74-.12.94-.67l.71-1.91h3.22l.7,1.91c.21.55.38.67.96.67h.37v-.71h-.14c-.22,0-.33-.04-.41-.26l-2.65-7.13h-.86l-2.65,7.13c-.08.22-.21.26-.41.26h-.15v.71Zm-10.18-4.07c0,2.43,1.75,4.21,3.96,4.21,1.71,0,2.65-1.1,2.65-1.1h.02s0,.17,0,.35v.61h.74v-3.08c0-.5-.21-.7-.7-.7h-.81v.72h.5c.16,0,.25.08.25.25v1s-.96,1.18-2.56,1.18c-1.83,0-3.2-1.45-3.2-3.44s1.39-3.41,3.21-3.41c1.45,0,2.35.83,2.35.83l.47-.6s-.96-.99-2.84-.99c-2.29,0-4.05,1.85-4.05,4.17Zm-10.36-.04c0-1.91,1.46-3.38,3.29-3.38s3.28,1.46,3.28,3.38-1.47,3.48-3.28,3.48-3.29-1.52-3.29-3.48Zm-.84,0c0,2.38,1.82,4.24,4.13,4.24s4.13-1.87,4.13-4.24-1.83-4.14-4.13-4.14-4.13,1.81-4.13,4.14Zm-6.33,4.11h.81v-3.53l2.18-3.56c.14-.24.3-.3.53-.3h.18v-.72h-.31c-.55,0-.76.08-1.11.65l-1.37,2.29c-.25.43-.5.91-.5.91h-.02s-.24-.48-.49-.91l-1.37-2.29c-.35-.57-.55-.65-1.11-.65h-.31v.72h.18c.24,0,.39.06.54.3l2.16,3.56v3.53Zm-14.41,0h.81v-3.63h2.94v-.71h-2.94v-3.04h2.45c.16,0,.25.08.25.25v.54h.75v-.81c0-.49-.19-.7-.69-.7h-4.31v.72h.75v7.39Zm-11.14-4.11c0-1.91,1.46-3.38,3.29-3.38s3.28,1.46,3.28,3.38-1.47,3.48-3.28,3.48-3.29-1.52-3.29-3.48Zm-.84,0c0,2.38,1.82,4.24,4.13,4.24s4.12-1.87,4.12-4.24-1.83-4.14-4.12-4.14-4.13,1.81-4.13,4.14Z"/>
        <path class="cls-1" d="m174.68,135.21h.81v-7.39h1.99c.17,0,.25.07.25.25v.54h.75v-.85c0-.49-.16-.66-.66-.66h-5.48c-.5,0-.66.16-.66.66v.85h.74v-.54c0-.18.09-.25.25-.25h2.01v7.39m-9.91-4.13v-3.26h1.81c.96,0,1.56.61,1.56,1.61s-.6,1.65-1.57,1.65h-1.8Zm-.81,4.13h.81v-3.41h1.36c.45,0,.6.06.82.48l1.16,2.32c.26.53.46.61,1.12.61h.36v-.71h-.16c-.29,0-.46-.02-.58-.27l-1.16-2.31c-.12-.23-.28-.32-.28-.32v-.02c.8-.17,1.57-.91,1.57-2.17,0-1.4-.97-2.31-2.33-2.31h-3.44v.72h.75v7.39Zm-8.48-3.29l1.06-2.89c.14-.38.31-1.05.31-1.05h.02s.17.67.31,1.05l1.07,2.89h-2.78Zm-2.26,3.29h.38c.58,0,.74-.12.94-.67l.71-1.91h3.22l.7,1.91c.21.55.38.67.95.67h.37v-.71h-.13c-.22,0-.34-.04-.42-.26l-2.65-7.13h-.87l-2.65,7.13c-.08.22-.21.26-.41.26h-.15v.71Zm-7.41-.7c0,.5.21.7.7.7h3.5c.5,0,.7-.21.7-.7v-.81h-.75v.54c0,.17-.09.26-.25.26h-2.85c-.16,0-.25-.08-.25-.26v-2.75h3.05v-.71h-3.05v-2.95h2.77c.16,0,.25.08.25.25v.54h.76v-.81c0-.49-.21-.7-.7-.7h-4.63v.72h.75v6.68Zm-10.8.7h.81v-3.7h4.66v3.7h.81v-7.13c0-.17.09-.25.25-.25h.5v-.72h-.87c-.48,0-.69.21-.69.7v2.99h-4.66v-2.99c0-.49-.21-.7-.7-.7h-.86v.72h.5c.16,0,.25.08.25.25v7.13Z"/>
        <path class="cls-1" d="m155.03,118.99c0,.5.21.7.7.7h3.51c.49,0,.7-.21.7-.7v-.81h-.75v.54c0,.17-.09.26-.26.26h-2.85c-.16,0-.25-.08-.25-.26v-2.75h3.04v-.71h-3.04v-2.95h2.77c.16,0,.25.08.25.25v.54h.76v-.81c0-.49-.21-.7-.7-.7h-4.63v.72h.75v6.68m-10.8.7h.81v-3.7h4.66v3.7h.81v-7.13c0-.17.09-.25.25-.25h.5v-.72h-.87c-.48,0-.69.21-.69.7v2.99h-4.66v-2.99c0-.49-.21-.7-.7-.7h-.85v.72h.49c.16,0,.25.08.25.25v7.13Zm-7.28,0h.81v-7.39h1.99c.17,0,.25.07.25.25v.54h.75v-.85c0-.49-.16-.66-.66-.66h-5.49c-.49,0-.65.16-.65.66v.85h.74v-.54c0-.18.09-.25.25-.25h2.01v7.39Z"/>
        <path class="cls-1" d="m145.59,104.18h.81v-7.39h1.99c.17,0,.25.07.25.25v.54h.75v-.85c0-.49-.16-.66-.66-.66h-5.49c-.49,0-.65.16-.65.66v.85h.74v-.54c0-.18.09-.25.25-.25h2.01v7.39m-9.42-3.29l1.06-2.89c.14-.38.31-1.05.31-1.05h.02s.17.67.31,1.05l1.07,2.89h-2.78Zm-2.26,3.29h.38c.58,0,.74-.12.94-.67l.71-1.91h3.22l.7,1.91c.21.55.38.67.96.67h.37v-.71h-.14c-.22,0-.33-.04-.41-.26l-2.65-7.13h-.86l-2.65,7.13c-.08.22-.21.26-.41.26h-.15v.71Z"/>
        <path class="cls-1" d="m222.1,167.41v-4.85h2.69c1.42,0,2.31.91,2.31,2.4s-.89,2.45-2.33,2.45h-2.67m-1.2,6.13h1.2v-5.07h2.02c.67,0,.89.09,1.22.72l1.73,3.45c.39.79.68.9,1.66.9h.53v-1.06h-.24c-.43,0-.68-.03-.86-.39l-1.73-3.43c-.17-.34-.41-.48-.41-.48v-.03c1.18-.26,2.33-1.36,2.33-3.22,0-2.09-1.44-3.42-3.46-3.42h-5.11v1.06h1.12v10.98Zm-12.99-1.04c0,.74.31,1.04,1.04,1.04h5.21c.74,0,1.04-.31,1.04-1.04v-1.2h-1.11v.81c0,.26-.14.38-.38.38h-4.23c-.24,0-.38-.12-.38-.38v-4.1h4.53v-1.06h-4.53v-4.39h4.12c.24,0,.37.12.37.38v.81h1.13v-1.2c0-.73-.31-1.04-1.05-1.04h-6.88v1.06h1.11v9.94Zm-16.4,1.04h1.2v-5.5h6.92v5.5h1.2v-10.61c0-.26.14-.38.38-.38h.74v-1.06h-1.29c-.72,0-1.03.31-1.03,1.04v4.44h-6.92v-4.44c0-.73-.31-1.04-1.04-1.04h-1.27v1.06h.74c.24,0,.37.12.37.38v10.61Zm-16.5-6.12c0,3.51,2.48,6.32,6.01,6.32,2.98,0,4.64-1.95,4.64-1.95l-.68-.88s-1.45,1.7-3.94,1.7c-2.74,0-4.78-2.32-4.78-5.19s2.06-5,4.73-5c1.39,0,3.34.62,3.34,1.75v.67h1.13v-.99c0-1.82-2.79-2.55-4.51-2.55-3.39,0-5.94,2.65-5.94,6.13Zm-11.55,1.23l1.58-4.3c.2-.57.46-1.56.46-1.56h.03s.26.99.46,1.56l1.59,4.3h-4.13Zm-3.36,4.88h.57c.86,0,1.1-.17,1.4-.99l1.06-2.85h4.78l1.05,2.85c.31.82.56.99,1.42.99h.55v-1.06h-.21c-.33,0-.5-.05-.62-.38l-3.94-10.61h-1.29l-3.94,10.61c-.12.33-.31.38-.62.38h-.22v1.06Zm-11.36-1.04c0,.74.31,1.04,1.04,1.04h5.21c.73,0,1.04-.31,1.04-1.04v-1.2h-1.11v.81c0,.26-.14.38-.38.38h-4.23c-.24,0-.38-.12-.38-.38v-4.1h4.53v-1.06h-4.53v-4.39h4.12c.24,0,.38.12.38.38v.81h1.13v-1.2c0-.73-.31-1.04-1.04-1.04h-6.89v1.06h1.12v9.94Zm-11.17,1.04h1.2v-10.98h2.97c.26,0,.38.11.38.38v.81h1.11v-1.27c0-.73-.24-.97-.98-.97h-8.16c-.73,0-.97.24-.97.97v1.27h1.1v-.81c0-.27.13-.38.37-.38h2.98v10.98Z"/>
      </g>
    </g>
  </g>
</svg>