<?xml version="1.0" encoding="UTF-8"?>
<svg id="Layer_2" data-name="Layer 2" xmlns="http://www.w3.org/2000/svg" viewBox="0 0 251.2 418.4">
  <defs>
    <style>
      .cls-1 {
        opacity: .2;
      }

      .cls-2, .cls-3 {
        fill: #b2bfa8;
        stroke-width: 0px;
      }

      .cls-3 {
        fill-rule: evenodd;
      }
    </style>
  </defs>
  <g id="Layer_1-2" data-name="Layer 1">
    <g class="cls-1">
      <path class="cls-2" d="m176.52,351.47c-.13-.25-.24-.51-.37-.76-11.28,4.86-17.73,13.97-21.52,23.58.58-10.36,2.94-58.26,40.58-85.69-.16-.23-.33-.46-.51-.69-12.68,9.1-21.33,20.63-27.29,32.29.66-8.31,2.84-39.97-1.32-46.67-.22.14-.45.27-.69.4,4.53,7.32,1.08,47.74,1.02,48.11.03,0,.05,0,.06.01-9.6,19.81-11.85,39.42-12.47,48.72-2.46-5.85-11.41-28.38-15.86-57.32-4.59-30.72-5.43-76.17,24.3-109.06.99-.68,20.08-11.89,42.26-14.92-.07-.28-.13-.54-.2-.81-19.12,2.63-35.99,11.25-41.03,14.12,8.45-12.73,43.84-55.73,42.95-58.81-.28.07-.55.12-.82.19.76,2.36-28.02,37.05-44.58,60.49h.01s-.04.04-.06.06c.69-6.15,3.77-29.85,3.32-37.31-.29,0-.58-.01-.85-.02.47,8.09-3.33,36.81-3.45,38.46-18.08,21.08-24.07,47.14-24.95,70.93-3.42-16.07-23.13-104.36-6.13-157.77.04-.2.88-5.44,2.37-13.18.93-1.24,14.58-19.55,40.19-31.61-.16-.22-.33-.43-.5-.65-22.22,10.45-35.54,25.62-39.31,30.38,4.07-23.12,15.19-61.36,22.57-69.44-.26-.15-.52-.29-.78-.44-8.44,8.86-20.86,55.99-23.95,76.58-2.83-8.91-14.76-48.47-20.65-64.17-.28.05-.56.1-.83.17,6.43,17.2,20.36,63.45,21.16,65.79-.69,3.85-1.06,6.19-1.09,6.32-7.94,24.73-7.9,57.31-5.2,86.53-3.81-11.4-17.54-50.29-41.31-86.35-.23.13-.47.27-.7.41,13.79,20.89,24.14,42.66,31.2,59.55-5.15-4.69-25.14-21.78-60.61-37.76-.09.26-.17.54-.26.8,39.94,17.98,60.09,37.27,61.62,38.75,6.8,16.51,10.27,27.86,10.34,28.09,0,0,.03,0,.05,0,.7,7.03,1.54,13.83,2.42,20.26-3.13-4.89-14.7-20.19-39.31-26.87-.04.28-.1.56-.14.83,29.13,7.93,39.65,27.85,39.7,27.98,0,0,0,0,.03,0,4.01,28.06,8.93,48.34,9,48.78.02,0,.04-.01.05-.01-.22,12.19.85,23.74,2.38,33.81,3.02,19.63,8.13,36.34,11.85,46.9-1.8-1.66-5.71-4.97-11.9-8.76h0c-5.43-7.92-11.01-15.93-16.37-22.86-.52-1.85-8.19-27.24-17.11-34.67-.14.22-.29.45-.45.67,7.39,6.13,14.21,25.93,16.21,32.27-3.16-4.01-6.21-7.61-9.07-10.57-11.06-11.4-22.77-22.02-33.7-31.73-2.93-2.6-6.16-4.96-9.62-7.05-.49-.45-23.66-22.21-30.09-32.2-.19.18-.38.34-.58.52,1.99,3.07,5.49,7.21,9.44,11.51,6.61,7.16,14.45,14.79,18.34,18.52-1.41-.76-2.86-1.48-4.33-2.15-9.32-4.23-19.24-6.38-29.26-6.22,0,.29.03.58.03.86,9.93-.15,19.77,1.98,29,6.16,6.16,2.81,11.77,6.43,16.62,10.73,10.92,9.69,22.6,20.3,33.63,31.67,7.74,7.96,16.92,20.8,25.68,33.59-9.71-5.72-24.56-12.34-44.32-15.36-.03.27-.05.55-.07.83,39.14,6.14,57.95,25.31,58.49,25.91,2.25,6.19,3.88,9.92,4.1,10.39-.11,2.47-.1,3.88-.1,3.97,0,0,0,0,0,0-1.93,5.53-3.06,11.14-3.68,16.21-1.94,15.69,4.18,25.6,4.21,25.72.25-.04.52-.08.77-.11.35-.12-13.08-51.23,21.4-66.82Z"/>
      <path class="cls-2" d="m176.27,1.03c4.66,8.29-2.8,19.43-22.19,33.12-.47.33-.85.6-1.16.83-1.34-4.56-.76-9.3,1.73-14.11,5.6-10.84,18.83-18.49,21.62-19.83m.34-1.03c-1.09,0-31.38,16.46-24.1,36.39-.16-.62,34.12-20.73,24.13-36.38,0,0-.01-.01-.03-.01h0Zm-24.1,36.39s0,0,0,0c0,0,0,0,0,0h0Z"/>
      <path class="cls-2" d="m110.85,48.59l-1.48-.65c-15.27-6.7-17.61-19.72-16.89-29.45.44-5.89,2.27-11.8,2.92-11.98l.28-.08.16.22c19.72,21.74,15.87,36.7,14.17,40.84l.84,1.1Zm-15.25-40.95c-.95,2.36-4.1,12.86-1.18,22.87,2.18,7.45,7.18,13,14.88,16.49,1.67-4.23,4.99-18.51-13.7-39.36Z"/>
      <path class="cls-2" d="m82.51,121.34l-.68-.2c-.26-.08-25.66-17.04-23.35-48.02l.06-.76.61.46c.2.15,20.18,16.67,21.07,32.82v.06c.06.79,1,9.97,2.13,14.96l.16.69Zm-23.25-47.33c-1.57,26.73,17.77,42.61,22.07,45.79-.66-3.52-1.95-12.28-1.87-14.12h-.08c-.78-14.19-16.74-28.74-20.12-31.67Z"/>
      <path class="cls-2" d="m219.6,327.95c-5.64,6.57-22.11,24.18-36.54,24.18-2.37,0-4.59-.49-6.62-1.47,1.11-3.14,5.78-13.18,21.28-17.71.11-.02.49-.1,1.07-.22,10.13-2.04,17.01-3.62,20.81-4.78m2.68-1.93c-2.99,1.92-24.82,6.09-24.8,6.12-18.78,5.49-22.03,18.94-22.07,18.94h0c2.43,1.31,5,1.88,7.64,1.88,18.09,0,39.23-26.93,39.22-26.94h0Zm-46.86,25.06h0s0,0,0,0h0Z"/>
      <path class="cls-2" d="m194.46,289.49l-.84-.03.07-.47.4.06-.4-.06c.14-.95,3.62-23.27,24.22-27.45h0c.07-.02.15-.04.24-.06,8.21-1.96,11.57-3.12,11.98-3.52.05-.11.11-.18.25-.23l.69-.23-.15.72s-.02.1-.06.17v.03c-1.96,5.21-12.8,31.05-36.27,31.05h-.12v.02Zm23.95-27.22h0s-.33.08-.33.08c-18.66,3.78-22.88,22.93-23.48,26.28,21.69-.01,32.38-22.75,35.08-29.52-1.42.59-4.5,1.54-11.27,3.16Z"/>
      <path class="cls-2" d="m104.47,295.98l-.53-.56c-2.91-1.89-26.65-18.11-27.43-45.4v-.16s.3-.37.3-.37l.3.14c.33.16,32.51,19.09,27.51,45.55l-.15.8Zm-27.1-45.21c1.14,25.33,22.35,40.82,26.54,43.64,3.91-23.46-22.12-40.88-26.54-43.64Z"/>
      <path class="cls-2" d="m63.73,323.92v.84c14.56,0,24.77,8.17,27.64,10.77-4.49,2.15-9.11,3.23-13.75,3.23-13.09,0-23.41-8.62-27.63-12.77,3.12-.03,8.32-.76,10.3-1.04.32-.04.54-.08.61-.09h.08c.91-.07,1.83-.1,2.74-.1v-.84m0,0c-.92,0-1.85.03-2.8.1,0,0,0,0,0,0-.19,0-7.4,1.13-11.12,1.13-1.06,0-1.83-.09-2.08-.33.55.59,12.8,14.77,29.9,14.77,4.74,0,9.85-1.09,15.19-3.85h0s-11.35-11.82-29.08-11.82h0Zm-16.03.88s.01.01.02.02c-.01-.01-.02-.02-.02-.02h0Z"/>
      <path class="cls-2" d="m13.74,276.48c-7.42,0-12.55-3.88-13.45-4.6l-.3-.24.19-.33c5.48-8.22,14.52-8.53,21.16-7.34,5.19.93,10.9,3.31,11.02,3.81l.05.24-.18.17c-6.85,6.37-13.25,8.31-18.5,8.31Zm-12.64-5.04c2.55,1.93,15.13,10.07,30.12-3.47-3.31-1.53-21.36-9.09-30.12,3.47Z"/>
      <path class="cls-2" d="m39.73,250.15l-1.65-1.56c-3.77-1.52-23.31-10.42-37.48-36.61l-.09-.18.18-.44.37-.02h0c.3,0,21.17.75,37.73,36.75l.94,2.05ZM1.69,212.23c13.16,23.92,30.76,33,35.88,35.23-14.69-31.22-32.3-34.83-35.88-35.23Z"/>
      <path class="cls-2" d="m164.38,279.1l1.68-2.18c-1.71-3.07-11.09-22.1,4.38-46.02l.52-.81.24.93c.32,1.25,7.65,30.34-4.13,45.97l.02.04-.28.26-2.43,1.81Zm6.24-46.93c-14.06,22.47-5.98,40.32-4.01,44.02,10.24-14.02,5.21-38.81,4.01-44.02Z"/>
      <path class="cls-2" d="m230.63,179.21c6.14,0,12.53,1.34,19.02,3.99-4.11,3.58-13.64,10.43-26.41,10.43-6.18,0-12.4-1.61-18.52-4.78,2.46-2.29,11.48-9.64,25.91-9.64m0-.84c-17.51,0-27.36,10.59-27.28,10.69,7.21,3.94,13.92,5.4,19.89,5.4,16.81,0,27.81-11.52,27.96-11.52h0c-7.69-3.33-14.58-4.57-20.57-4.57h0Zm20.57,4.57s0,0,0,0c0,0,0,0,0,0h0Z"/>
      <path class="cls-2" d="m237.54,110.31c-3.21,25.68-26.12,32.63-31.2,33.85,3.91-23.06,24.78-31.71,31.2-33.85m.97-1.19s0,0,0,0h0Zm0,0c-.08.08-29.14,7.61-33.18,36.08,0,0,0,0,.02,0,.82,0,30.2-5.7,33.16-36.08h0Z"/>
      <path class="cls-2" d="m163.91,167.97l-.28-.26s-.03-.03-.06-.06h0s0,0,0,0c-1.03-1.24-15.03-19.71,8.29-50.87l.25-.33.33.25c.23.17,2.95,7.95,3.49,17.55.54,9.62-1.03,23.15-11.48,33.2h0s-.56.52-.56.52Zm8.15-50.06c-21.28,28.9-10.03,46.31-8.11,48.87,17.62-17.02,9.69-44.13,8.11-48.87Z"/>
      <path class="cls-2" d="m206.62,50.9c-15.44,20.37-26.3,23.46-31.46,23.46-1.92,0-3.24-.43-3.88-.72,5.8-16.99,27.64-21.63,35.34-22.74m1.85-1.08s0,0,0,0h0Zm0,0c-.11.04-31.48,2.75-38.19,24.18.11.18,1.78,1.2,4.87,1.2,6.03,0,17.46-3.88,33.32-25.38h0Z"/>
      <path class="cls-2" d="m14.47,116.27c4.69.18,24.76,2.33,36.13,25.09-5.18-.19-20.2-2.82-36.13-25.09m-.76-.85c-.55,0-.85.03-.83.04,17.75,25.59,34.76,26.75,38.36,26.75.36,0,.58-.01.67-.01.02,0,.03,0,.04,0-11.78-25-33.7-26.78-38.23-26.78h0Z"/>
      <path class="cls-2" d="m43.6,187.28c4.18,1.39,10.36,1.82,14.27,1.94l.03.02h.32c.32-.03.63-.03.95-.03,12.88,0,26.5,11.08,30.36,14.46-4,1.14-7.97,1.71-11.82,1.71-17.7,0-29.44-12.17-34.12-18.1m-2.7-2.28c.16.15,13.09,21.21,36.81,21.21,4.16,0,8.66-.65,13.48-2.17h0s-16.44-15.67-32.02-15.67c-.33,0-.66,0-.98.02-.03-.02-13.41-.17-17.28-3.39h0Z"/>
      <path class="cls-2" d="m109.76,47.52l-.46.06c-.04-.27-3.67-27.24-13.98-40.53l.36-.28c10.39,13.39,14.03,40.48,14.07,40.76Z"/>
      <path class="cls-2" d="m82.15,120.62l-.39.24c-1.03-1.68-25.12-41.33-23.07-47.78l.44.14c-1.97,6.24,22.77,46.99,23.02,47.4Z"/>
      <path class="cls-2" d="m50.27,141.97l-.24.39c-1.38-.84-33.53-20.42-33.51-26.61,0-.06,0-.12.01-.18l.46.05c-.63,5.69,32.94,26.14,33.28,26.35Z"/>
      <path class="cls-2" d="m87.39,200.55l-.02.46c-1.49-.07-36.5-1.88-42.39-14.04l.42-.2c5.78,11.92,41.64,13.76,42,13.78Z"/>
      <path class="cls-3" d="m51.34,325.62s25.5,7.05,37.48,7.67"/>
      <path class="cls-2" d="m88.82,333.11l-.02.36c-11.86-.62-37.26-7.61-37.52-7.67l.1-.35c.25.07,25.62,7.05,37.44,7.66Z"/>
      <path class="cls-2" d="m100.98,291.7c0,.33-.01.64-.04.95l-.38-.04c.03-.3.04-.59.04-.91.04-13.11-23.54-40.38-23.78-40.66l.29-.25c1,1.15,23.92,27.66,23.88,40.91Z"/>
      <path class="cls-2" d="m216.68,328.07c-8.25,8.91-40.13,22.67-40.45,22.81l-.15-.35c.32-.14,32.12-13.87,40.31-22.72l.29.26Z"/>
      <path class="cls-2" d="m230.05,258.66c-4.42,8.24-34.42,28.86-35.7,29.73l-.22-.32c.31-.21,31.2-21.44,35.57-29.6l.34.18Z"/>
      <path class="cls-2" d="m170.41,232.08c-2.74,7.99-5.3,41.03-5.33,41.37l-.38-.03c.02-.33,2.59-33.42,5.35-41.46l.36.12Z"/>
      <path class="cls-2" d="m250.1,182.5c-3.58,6.58-44.99,6.75-46.75,6.76v-.38c.43,0,42.93-.17,46.41-6.55l.34.18Z"/>
      <path class="cls-2" d="m207.68,51.09c-4.87.34-36.25,22.41-36.57,22.63l-.22-.32c1.3-.91,31.78-22.35,36.76-22.7l.03.38Z"/>
      <path class="cls-2" d="m172.49,117.95c-.03,7.23-9.23,45.94-9.65,47.69l-.37-.09c3.75-15.75,10.58-46.13,9.54-48.45l.36-.16c.08.18.12.53.12,1Z"/>
      <path class="cls-2" d="m176.26.2c-.06,4.18-22.9,34.23-23.87,35.51l-.31-.23c.24-.31,23.73-31.22,23.79-35.28h.39Z"/>
      <path class="cls-2" d="m237.69,109.53c-.04,11.83-30.44,32.12-31.74,32.97l-.21-.32c.31-.21,31.53-21.03,31.56-32.66v-.08h.38s0,.05,0,.08Z"/>
      <path class="cls-2" d="m37.26,246.16l-.28.27c-.3-.31-29.56-30.42-34.63-34.36l.24-.3c5.09,3.96,34.37,34.09,34.67,34.39Z"/>
      <path class="cls-2" d="m32.05,267.69l-.19.33c-3.81-2.23-31.01,3.63-31.28,3.69l-.08-.38c1.12-.24,27.62-5.95,31.56-3.65Z"/>
      <path class="cls-2" d="m.58,271.72l-.08-.37c.22-.05,22.65-5.01,31.49-3.67l-.06.38c-8.77-1.33-31.13,3.62-31.35,3.67Z"/>
      <path class="cls-2" d="m36.98,245.7c-.21-.25-21.34-24.98-36.11-33.76l.2-.33c14.83,8.82,35.99,33.59,36.2,33.84l-.29.25Z"/>
      <path class="cls-2" d="m104.56,293.47c-.22-.28-21.91-28.24-27.82-43.38l.36-.14c5.88,15.09,27.54,43.01,27.76,43.28l-.31.24Z"/>
      <path class="cls-2" d="m162.84,165.65l-.37-.11c.11-.36,10.8-36.2,9.53-48.49l.38-.04c1.28,12.37-9.44,48.28-9.55,48.64Z"/>
      <path class="cls-2" d="m206.3,145.22l-.24-.31c.31-.24,30.85-24.4,31.24-35.48l.39.02c-.39,11.26-30.12,34.77-31.39,35.77Z"/>
      <path class="cls-2" d="m170.86,72.8l-.21-.33c.25-.16,25.06-16.36,36.03-22.61l.19.34c-10.96,6.25-35.76,22.44-36.01,22.6Z"/>
      <path class="cls-2" d="m151.95,34.22l-.24-.31c.22-.17,22.23-17.72,24.17-33.74l.39.05c-1.95,16.18-24.09,33.82-24.31,34Z"/>
    </g>
  </g>
</svg>