<?xml version="1.0" encoding="UTF-8"?>
<svg id="Layer_2" data-name="Layer 2" xmlns="http://www.w3.org/2000/svg" viewBox="0 0 98.28 146.36">
  <defs>
    <style>
      .cls-1 {
        fill: #97c2cb;
        stroke-width: 0px;
      }

      .cls-2 {
        opacity: .4;
      }
    </style>
  </defs>
  <g id="Layer_1-2" data-name="Layer 1">
    <g class="cls-2">
      <path class="cls-1" d="m80.12,90.4l-.23-.36c-4.39-6.87-1.55-21.96-1.43-22.6,3.13-9.51,14.94-27.77,15.06-27.96l.35-.54.3.57c14.32,27.45-13.45,50.39-13.73,50.62l-.33.27Zm13.68-49.95c-1.99,3.12-11.83,18.74-14.61,27.19-.02.1-2.79,14.84,1.11,21.64,3.07-2.66,26.04-23.79,13.5-48.82Z"/>
      <path class="cls-1" d="m63.78,73.82l-.23-.5c-.07-.16-7.39-16.2.57-33.22.1-.19,8.95-16.58,6-25.33h0l.71-.24c.25.74.88,1.56,1.48,2.35.37.48.72.93.98,1.37,1.99,3.28,3.68,6.62,5,9.93,3.61,9.05,3.98,17.28,1.13,24.47-3.09,7.76-9.5,14.79-15.26,20.77l-.38.39Zm7.57-56.95c1.18,9.25-6.22,22.95-6.56,23.58-7.01,14.99-1.93,29.2-.78,32.05,5.61-5.84,11.74-12.65,14.71-20.11,2.79-7.01,2.41-15.05-1.13-23.91-1.3-3.27-2.97-6.58-4.94-9.82-.25-.4-.58-.84-.94-1.3-.12-.16-.24-.32-.36-.47Z"/>
      <path class="cls-1" d="m78,115.96l-1.79-.71c-1.34-.53-4.55,1.36-6.28,2.38-.49.29-.92.54-1.23.7-.91.47-1.85,1.04-2.66,1.54l-1,.62c-1.88,1.15-3.72,2.24-5.65,2.82-6.4,1.94-14.04-2.95-19.1-6.19-4.01-2.57-7.44-5.29-10.23-8.11l-2.05-2.07,2.51,1.48c3.01,1.78,17.3-.76,17.45-.79,17.9-3.09,28.53,6.9,28.63,7l1.39,1.33Zm-12.35,3.26c.82-.5,1.77-1.08,2.71-1.56.3-.16.71-.4,1.19-.68,1.64-.97,3.94-2.32,5.66-2.54-2.84-2.23-12.48-8.59-27.11-6.07-.53.09-11.54,2.05-16.38,1.2,2.53,2.39,5.53,4.7,8.96,6.89,4.96,3.17,12.42,7.95,18.49,6.11,1.84-.56,3.64-1.61,5.47-2.74l1-.62Z"/>
      <path class="cls-1" d="m52.44,90.12l-.68.32c-.08-.16-7.82-16.28-27.97-18.98-2.03-.32-17.81-2.87-22.51-6.29,1.12,3.27,2.89,6.78,5.37,10.68,4.11,6.47,10.56,15.28,19.03,17.12,5.98,1.3,18.8,2.36,24.52-2.93l.51.55c-5.94,5.5-18.63,4.54-25.2,3.11-8.75-1.9-15.32-10.87-19.51-17.45-2.96-4.65-4.92-8.77-6-12.6l.73-.2c.88,3.12,17.02,6.3,23.16,7.26,20.56,2.75,28.47,19.24,28.55,19.41Z"/>
      <path class="cls-1" d="m43.37,57.01q-.34.21-4.56-4.32c-1.96-2.1-4.11-4.45-4.33-4.74-4.69-6.28-8.59-13.19-11.3-20.01-2.32-5.85-2.39-11.24-.22-16.47.08-.2.26-.57.49-1.08,3.66-7.89,3.6-9.49,3.24-9.73l.37-.65s.02.01.05.03h0s.03.02.05.03c1.3.88,14.01,10.04,19.16,24.9,3.61,10.42,2.66,21.15-2.82,31.89l-.05.09-.09.06ZM27.57,1.29c-.05,1.55-1.14,4.49-3.42,9.42-.23.49-.4.86-.48,1.05-2.1,5.04-2.03,10.25.22,15.9,2.68,6.76,6.56,13.62,11.2,19.84.45.6,6.48,7.08,7.97,8.58C57.91,26.3,32.65,5.14,27.57,1.29Z"/>
      <path class="cls-1" d="m93.2,128.68c-2.31-5.71-5.42-11.17-9.16-16.2-1.23-1.67-2.56-3.29-3.95-4.85-.27-1.64-.46-3.28-.55-4.92-.11-1.77-.11-3.54,0-5.29.09-1.75.3-3.49.64-5.19.31-1.71.88-3.34,1.47-4.95,1.35-2.7,2.64-5.42,3.75-8.23.55-1.41,1.08-2.83,1.53-4.28.21-.73.41-1.47.56-2.22.16-.75.24-1.52.22-2.29-.08,1.54-.55,2.98-1.04,4.41-.51,1.42-1.07,2.82-1.67,4.2-1.23,2.75-2.49,5.49-3.88,8.15h0s0,.02,0,.02c-.29.83-.65,1.63-.85,2.49-.12.42-.24.85-.35,1.27l-.27,1.29c-.32,1.73-.54,3.49-.58,5.27-.05,1.78.01,3.56.18,5.34.18,1.63.42,3.26.81,4.87-.69-.78-1.39-1.54-2.12-2.29-2.19-2.27-4.51-4.42-6.84-6.54-2.36-2.14-4.74-4.28-7.01-6.49-.42-1.81-.72-3.64-.91-5.47-.22-1.99-.32-3.98-.28-5.96.05-1.98.25-3.93.59-5.85.22-.95.4-1.91.72-2.82.16-.46.26-.94.46-1.38l.56-1.34c.77-1.8,1.45-3.64,2.05-5.51.6-1.87,1.13-3.77,1.5-5.71.39-1.93.67-3.9.71-5.9.02-1.99-.11-4.03-.78-5.97.54,1.97.61,3.98.49,5.94-.1,1.97-.43,3.91-.87,5.81-.86,3.81-2.1,7.53-3.65,11.08l-.55,1.37c-.2.45-.3.94-.46,1.41-.32.94-.49,1.92-.71,2.88-.32,1.96-.54,3.94-.52,5.95.03,3.83.54,7.68,1.61,11.42-2.21-2.15-4.32-4.38-6.23-6.77-1.97-2.42-3.65-5.02-5.17-7.72-1.53-2.69-2.94-5.44-4.26-8.23-2.64-5.57-4.78-11.32-6.7-17.12-1.88-5.81-3.47-11.69-4.84-17.6-1.38-5.91-2.51-11.86-3.45-17.83.84,5.97,1.88,11.94,3.17,17.87,1.31,5.93,2.86,11.83,4.69,17.67,1.85,5.83,4.02,11.6,6.64,17.21,1.31,2.8,2.72,5.57,4.25,8.27,1.52,2.71,3.23,5.36,5.21,7.81,2.37,2.95,5.04,5.65,7.8,8.24-2-.72-4.02-1.39-6.05-2.05-2.23-.71-4.47-1.4-6.71-2.06-4.49-1.29-8.99-2.52-13.52-3.6-1.76-.64-3.52-1.38-5.24-2.16-1.72-.8-3.43-1.63-5.09-2.55-3.31-1.85-6.53-3.98-9.09-6.8,1.18,1.49,2.62,2.77,4.12,3.97,1.51,1.19,3.14,2.21,4.78,3.19,1.65.98,3.36,1.85,5.09,2.66,1.73.81,3.49,1.56,5.28,2.23h.01s.02,0,.02,0l6.78,1.71c2.26.58,4.51,1.2,6.76,1.81,2.25.61,4.5,1.24,6.74,1.89,2.06.58,4.11,1.19,6.17,1.81,1.82,1.71,3.69,3.38,5.53,5.05,2.33,2.11,4.64,4.25,6.83,6.49,2.18,2.25,4.24,4.61,6.11,7.1,1.47,1.95,2.84,3.96,4.11,6.03-1.14-.87-2.4-1.59-3.7-2.21-1.46-.68-2.99-1.22-4.55-1.58-1.56-.37-3.15-.59-4.74-.6-.79-.05-1.58.02-2.37.07-.79.05-1.55.2-2.33.3h-.02s-.04.02-.04.02c-1.35.51-2.9.73-4.43.79-1.54.06-3.09-.08-4.64-.3l-1.16-.2c-.39-.07-.77-.18-1.15-.26-.77-.16-1.52-.42-2.28-.64-.76-.22-1.5-.52-2.25-.78l-2.22-.92c.72.36,1.43.72,2.16,1.05.74.3,1.47.64,2.23.9.76.25,1.51.53,2.29.72.39.1.77.22,1.16.3l1.17.25c1.57.29,3.16.43,4.74.39,1.58-.06,3.14-.23,4.64-.79l-.06.02c.76-.1,1.5-.26,2.27-.31.77-.05,1.53-.13,2.31-.09,1.55-.02,3.1.21,4.64.5,1.54.3,3.06.79,4.52,1.4,1.34.55,2.63,1.22,3.84,2.03,1.96,3.2,3.68,6.52,5.1,9.95,2.36,5.65,4.13,11.59,4.37,17.59-.14-5.99-1.82-11.98-4.1-17.68Z"/>
    </g>
  </g>
</svg>