<?xml version="1.0" encoding="UTF-8"?>
<svg id="Layer_2" data-name="Layer 2" xmlns="http://www.w3.org/2000/svg" viewBox="0 0 350.87 266.03">
  <defs>
    <style>
      .cls-1 {
        fill: #97c2cb;
        stroke-width: 0px;
      }

      .cls-2 {
        opacity: .2;
      }
    </style>
  </defs>
  <g id="Layer_1-2" data-name="Layer 1">
    <g class="cls-2">
      <path class="cls-1" d="m26.29,161.22l.58-1.95,40.05,8.38c7.63,1.6,17.43,12.15,22.69,17.82l.37.4c7.66,8.25,13.52,17.78,17.35,28.21,3.12,8.57,3.99,15.93,2.63,22.48-1.71,8.31-7.39,15-14.45,17.03-5.58,1.62-12.06.43-17.77-3.26-4.39-2.84-8.3-7.03-12.31-13.19-3.08-4.74-5.93-10.14-8.71-16.49-2.78-6.35-5.22-12.99-7.57-19.42-2.34-6.39-4.76-13.01-7.52-19.29-2.83-6.45-5.72-11.9-8.86-16.66-1.63-2.47-3.13-3.6-4.58-3.45l-.48-.06-1.42-.56Zm77.25,48.95c-3.67-8.38-8.74-16.08-15.07-22.9l-.37-.4c-5.11-5.5-14.61-15.74-21.6-17.21l-33.05-6.92c.46.58.81,1.1,1.03,1.44,3.2,4.86,6.15,10.41,9.03,16.96,2.78,6.34,5.22,12.99,7.57,19.41,2.34,6.4,4.76,13.02,7.52,19.31,2.74,6.25,5.54,11.54,8.56,16.19,3.84,5.91,7.55,9.91,11.7,12.58,5.13,3.32,11.14,4.44,16.09,3.01,6.35-1.83,11.45-7.9,13.02-15.48,1.28-6.17.44-13.16-2.55-21.37-.57-1.56-1.18-3.09-1.85-4.62Z"/>
      <path class="cls-1" d="m23.95,159.27l2.25.45,3.02.88c2.26.2,4.73-.2,7.77-1.28,9.26-3.28,18.07-10.28,25.47-20.26,6.04-8.15,10.7-17.43,15.2-26.4l1.33-2.64c2.69-5.36,5.51-10.4,10.37-13.17,3.52-2.02,7.95-2.73,13.57-2.19,5.47.54,10.05,2.04,13.6,4.49,4.56,3.13,8.1,8.35,9.85,14.48,2.46,8.6,1.36,18-3.02,25.79-5.1,9.1-13.61,14.44-19.85,17.33-8.52,3.93-17.64,5.67-25.44,6.87-15.5,2.36-28.96,2.81-41.13,1.38l-8.11-2.36c-1.08-.11-2.13-.35-3.13-.7l-.37-.14-1.38-2.51Zm99.15-48.72c-1.81-4.13-4.48-7.5-7.74-9.73-3.27-2.24-7.52-3.63-12.65-4.13-5.17-.5-9.21.14-12.35,1.93-4.36,2.5-7.01,7.25-9.56,12.31l-1.33,2.64c-4.54,9.05-9.24,18.41-15.38,26.7-7.65,10.31-16.79,17.56-26.44,20.97-1.09.39-2.11.69-3.08.92l2.76.81c11.82,1.38,25.1.93,40.42-1.4,7.65-1.17,16.6-2.88,24.89-6.7,5.96-2.76,14.09-7.85,18.92-16.47,4.12-7.32,5.15-16.15,2.84-24.23-.36-1.24-.8-2.47-1.31-3.63Z"/>
      <path class="cls-1" d="m82.79,167.42l-.18-2.04c2.03-.17,4.06-.3,6.07-.37,22.02-.84,42.56,4.15,61.06,14.81,16.2,9.34,28.88,20.76,37.66,33.96,4.6,6.9,6.88,13.43,6.59,18.94-.19,3.55-1.9,7.65-3.26,10.93l-.4.97c-1.87,4.52-4.97,11.07-10.29,15.77-5.29,4.65-12.2,6.64-18.05,5.17-4.72-1.18-8.6-4.46-11.45-7.18-13.29-12.69-21.68-29.4-29.8-45.57-5.16-10.28-10.5-20.9-17.04-30.4-7.23-10.51-14.25-15.55-20.9-14.98,0,0,0,0-.01,0h0Zm106.87,54.63c-1-2.29-2.34-4.69-3.96-7.13-8.61-12.93-21.06-24.13-36.98-33.32-17.62-10.16-37.13-15.07-58.03-14.6,4.86,2.33,9.77,7.09,14.69,14.25,6.62,9.62,11.99,20.3,17.18,30.64,8.04,16.01,16.36,32.56,29.39,45.01,2.67,2.55,6.28,5.62,10.53,6.68,5.2,1.3,11.41-.51,16.2-4.73,3.81-3.36,6.91-8.13,9.76-15.01l.4-.98c1.31-3.15,2.94-7.06,3.11-10.25.17-3.16-.61-6.72-2.3-10.57Z"/>
      <path class="cls-1" d="m115.13,166.65l5.4-3.16c7.41-4.34,13.1-12.24,15.63-21.68,2.16-8.05,2.17-17.28.03-27.47l-.41-1.91c-.65-2.94-1.31-5.99-1.24-9.09.14-6.47,3.56-12.84,9.14-17.02,7.69-5.76,20.87-8.17,30.13-1.3,3.42,2.55,5.84,5.62,7.62,9.67,7.99,18.32-6.82,37.51-13.55,44.91-10.65,11.72-25.99,20.78-43.21,25.51-1.16.32-1.64.27-2.15.18-.26-.05-.49-.09-1.27.08l-6.12,1.27Zm64.45-71.07c-1.66-3.78-3.87-6.6-6.99-8.92-8.47-6.28-20.59-4.02-27.68,1.29-5.08,3.81-8.19,9.58-8.33,15.43-.07,2.86.57,5.78,1.19,8.61l.41,1.93c2.2,10.5,2.18,20.07-.06,28.42-2.26,8.43-6.93,15.71-13.09,20.55,16.47-4.7,31.12-13.43,41.32-24.66,6.47-7.11,20.7-25.5,13.22-42.64h0Z"/>
      <path class="cls-1" d="m254.42,113.52l3.82-.19c1.64-.98,3.28-1.98,4.93-3,4.44-2.74,9.03-5.57,13.8-7.74,4.4-2.01,8.84-4.2,13.14-6.32l2.43-1.19c6.72-3.3,13.6-6.69,20.95-8.48,5.86-1.43,14.54-2.39,22.64,1.18,7.5,3.31,13,10.5,13.48,17.87.34,5.21-1.64,10.77-5.45,15.24-3.18,3.75-7.64,6.87-13.22,9.26-11.46,4.9-25.31,5.75-39,2.41-11.58-2.83-23.42-8.66-35.2-17.33l-2.31-1.7Zm91.78-13.23c-1.99-4.53-6.06-8.51-10.9-10.64-7.58-3.34-15.78-2.42-21.33-1.07-7.13,1.74-13.91,5.07-20.46,8.3l-2.5,1.23c-4.31,2.13-8.77,4.33-13.19,6.34-4.66,2.13-9.19,4.92-13.58,7.63-1.52.93-3.03,1.86-4.55,2.77,10.98,7.81,21.98,13.1,32.72,15.72,13.26,3.24,26.65,2.42,37.71-2.3,5.29-2.26,9.49-5.19,12.47-8.71,3.47-4.07,5.28-9.1,4.97-13.78-.12-1.85-.58-3.7-1.36-5.49Z"/>
      <path class="cls-1" d="m197.76,143.71h0c1.07-1.06.78-7.76.66-10.28-.04-.92-.08-1.68-.07-2.18,0-4.53-.31-9.13-.94-13.67-.45-3.23-1.23-6.38-1.99-9.44-1.19-4.81-2.43-9.79-2.42-15.22.03-12.69,4.93-22.35,13.47-26.5,4.63-2.26,10.23-2.94,15.77-1.93,2.62.47,4.74,1.24,6.47,2.37,3.67,2.37,6.47,5.7,8.3,9.87,2.75,6.27,3.23,14.26,1.35,22.49-1.81,7.97-6.07,15.9-12.66,23.6-5.82,6.78-12.74,12.63-19.44,18.28-.96.82-2.3,1.44-3.59,2.03-1.32.61-2.7,1.25-3.47,2.03h0s-1.44-1.45-1.44-1.45Zm37.38-66.16c-1.67-3.8-4.2-6.82-7.53-8.97-1.5-.97-3.37-1.65-5.73-2.07-5.12-.94-10.27-.32-14.51,1.76-10.69,5.2-12.31,17.69-12.32,24.67-.01,5.18,1.14,9.81,2.36,14.72.77,3.11,1.57,6.32,2.03,9.65.65,4.63.96,9.33.96,13.95,0,.47.03,1.2.07,2.08.14,3.25.23,6.35-.08,8.63.47-.24.95-.46,1.43-.68,1.17-.55,2.37-1.1,3.12-1.74,6.64-5.6,13.5-11.39,19.21-18.05,6.37-7.44,10.48-15.08,12.22-22.72,1.78-7.81,1.34-15.35-1.23-21.22Z"/>
      <path class="cls-1" d="m157.82,156.67l-.26-2.03h0s0,0,0,0c10.54-1.42,20.93-1.14,29.71-.69,10.65.52,21.12,2.82,31.13,6.82,11.18,4.47,21.53,11.08,29.92,19.13,5.51,5.3,8.95,9.94,10.92,15,2.55,6.44,2.31,13.37-.61,18.52-1.4,2.47-3.52,4.75-6.31,6.76-7.16,5.18-16.54,6.97-25.09,4.79-4.16-1.07-8.4-3.08-13.37-6.34-9.18-6.03-17.87-14.12-27.34-25.44-2.76-3.3-5.25-6.85-7.67-10.28-2.29-3.26-4.66-6.63-7.22-9.73-1.74-2.1-3.08-4.08-4.5-6.18-.66-.97-1.32-1.95-2.03-2.95-2.06-2.9-6.15-7.35-7.28-7.37Zm99.16,38.1c-1.91-4.37-5.11-8.63-10.07-13.39-8.21-7.87-18.33-14.34-29.26-18.71-9.8-3.91-20.05-6.16-30.47-6.67-7.81-.41-16.91-.67-26.2.3,2.81,2.39,5.76,6.5,5.8,6.56.73,1.02,1.4,2.01,2.06,2.99,1.39,2.06,2.71,4,4.39,6.03,2.61,3.17,5,6.57,7.32,9.87,2.39,3.4,4.87,6.92,7.56,10.15,9.35,11.16,17.89,19.12,26.9,25.04,4.77,3.13,8.82,5.06,12.75,6.07,7.97,2.03,16.72.36,23.39-4.46,2.55-1.85,4.48-3.9,5.73-6.12,2.63-4.62,2.81-10.89.49-16.76-.12-.3-.24-.59-.37-.89Z"/>
      <path class="cls-1" d="m263.97,113.52l-.81-1.87c2-.89,1.95-4.15,1.75-6.01-.6-5.3-1.43-11.4-3.11-16.39-1.08-3.25-2.76-6.49-4.38-9.65-1.26-2.45-2.57-4.99-3.59-7.52-2.94-7.19-3.87-13.12-2.92-18.64,1.64-9.62,9.82-17.74,19.44-19.31,10.95-1.8,19.73,2.88,24.1,12.84,2.4,5.48,3.3,12.2,2.53,18.92-1.94,16.91-11.09,32.72-24.46,42.28-.74.53-1.37,1-1.95,1.43-2.11,1.57-3.5,2.6-6.6,3.93Zm-1.62-28.51c.56,1.29,1.02,2.46,1.39,3.58,1.73,5.18,2.59,11.41,3.2,16.82.18,1.69.14,3.14-.14,4.35.84-.53,1.6-1.11,2.54-1.81.59-.44,1.23-.92,1.98-1.46,12.91-9.23,21.74-24.5,23.62-40.85.73-6.36-.11-12.71-2.37-17.86-2.33-5.31-8.26-13.88-21.89-11.64-8.8,1.44-16.27,8.86-17.76,17.64-.87,5.13.02,10.69,2.8,17.52,1.01,2.47,2.28,4.95,3.52,7.36,1.06,2.07,2.17,4.22,3.1,6.35Z"/>
      <path class="cls-1" d="m301.17,81.77l1.36-2.87c5.24-11.06,6.81-20.14,5.25-30.38-.36-2.37-.88-4.89-1.43-7.57-1.67-8.15-3.58-17.39-1.28-24.88,1.94-6.31,6.25-11.27,12.14-13.96,6.19-2.83,13.43-2.81,19.86.03,4.89,2.16,8.73,6.16,11.1,11.56,3.08,7.03,3.56,16.08,1.27,24.22-7.14,21.23-24.29,30.66-42.44,40.64l-5.83,3.21Zm45.12-67.25c-2.16-4.92-5.63-8.56-10.05-10.51-5.9-2.61-12.52-2.62-18.18-.04-5.35,2.44-9.27,6.95-11.03,12.69-2.14,6.99-.3,15.96,1.33,23.87.55,2.71,1.08,5.26,1.45,7.68,1.49,9.79.25,18.54-4.16,28.75l.35-.19c17.79-9.79,34.6-19.03,41.47-39.45,2.15-7.64,1.7-16.18-1.19-22.79Z"/>
      <path class="cls-1" d="m215.3,138.2l7.72-3.5c8.36-1.72,16.86-1.54,25.08-1.36,2.86.06,5.71.13,8.53.11,9.64-.05,22.27.31,34.51,3.59,7.35,1.98,14.06,5.81,19.38,11.09,2.62,2.59,4.69,5.62,6.17,8.99,4.75,10.83,2.28,22.37-6.29,29.4-5.36,4.39-11.88,7.17-18.36,7.83-3.68.38-7.22.11-10.5-.81-2.75-.76-5.55-2.03-8.81-3.99-10.72-6.44-19.27-15.91-27.55-25.07-8.45-9.35-17.18-19.02-28.13-25.29l-1.74-.99Zm99.51,19.74c-1.37-3.14-3.31-5.95-5.74-8.36-5.08-5.02-11.46-8.68-18.47-10.56-12.01-3.22-24.46-3.57-33.97-3.52-2.84.01-5.71-.05-8.58-.11-8.11-.18-16.49-.36-24.41,1.24l-3.9,1.79c10.44,6.42,18.82,15.7,26.94,24.69,8.17,9.04,16.62,18.4,27.09,24.69,3.1,1.86,5.73,3.06,8.31,3.77,3.03.85,6.31,1.1,9.74.75,6.09-.62,12.22-3.24,17.27-7.38,7.84-6.43,10.09-17.03,5.72-26.99Z"/>
      <path class="cls-1" d="m174.82,239.77c-13.46-28.78-37.06-59.75-67.85-71.96,16.27-1.33,32.44-3.91,48.42-7.73,8.02.65,15.05,3.86,22.48,7.01,8.69,3.71,17.46,7.25,26.03,11.25,15.88,7.43,29.6,16.95,43.69,27.24.29.21.59-.21.37-.46-12.42-14.12-30.63-23.39-47.44-31.2-7.99-3.71-16.13-7.03-24.39-10.09-4.98-1.85-10.14-4.09-15.43-5.01,7.42-1.9,14.79-4.07,22.09-6.51,9.01-3,18.13-6.43,27.2-10.29,17.35-1.84,34.03,3.52,50.6,8.35,17.22,5.02,33.4,11.38,48.88,20.47.31.19.72-.27.42-.51-14.37-11.46-32.46-17.51-49.84-22.65-13.48-3.98-28.34-9.31-42.79-8.84,16.88-7.62,33.48-16.74,48.89-27.41,12.32-1.2,24.52-2.77,36.92-3.26,10.56-.42,21.53-.11,31.38-4.51.2-.09.06-.39-.14-.36-20.7,3.78-42,1.42-62.86,4.35,13.18-9.61,25.34-20.41,35.91-32.41,8.47-7.09,15.03-16.48,19.51-26.86.58-.99,1.17-1.97,1.72-2.98.2-.35.06-.66-.17-.87,3.65-9.7,5.55-20.06,5.62-29.99,0-.36-.54-.36-.56,0-.56,11.31-3.24,22.26-7.75,32.63-12.84,20.46-30.27,38.17-50.2,53.15,2.95-6.45,4.38-13.55,5.06-20.75,1.12-11.92.85-24.22-4.5-35.15-.1-.19-.41-.07-.36.14,5.16,18.05,5.32,43.05-5.42,59.57-20.67,14.73-43.72,26.64-66.93,35.78,5.02-8.19,7.9-18.62,10.54-27.27,3.62-11.87,5.9-24.02,6.9-36.4.02-.34-.49-.34-.52-.01-3.09,23.83-10.9,45.44-23.1,66.04-7.43,2.77-14.86,5.25-22.21,7.45-11.56,3.46-23.29,6.22-35.11,8.37,13.05-12.03,20.46-28.2,20.49-46.56,0-.99-1.61-1.34-1.79-.28-3.2,18.35-12.53,35.6-26.3,48.17-13.66,2.16-27.43,3.44-41.23,3.89-.1-.02-.19-.04-.29-.06-.23-.04-.43.02-.61.1-7.49.23-14.98.21-22.46-.05,17.96-10,35.03-24.57,40.13-44.97.24-.96-1.13-1.36-1.47-.43-8.03,21.73-25.89,33.44-44.58,45.09-9.72-.52-19.43-1.43-29.09-2.78-.03-.01-.06-.03-.09-.04-.19-.08-.37-.08-.54-.06-9.84-1.39-19.63-3.16-29.33-5.39-2.65-.61-3.86,3.39-1.19,4.08,12.25,3.16,24.61,5.53,37.04,7.2,25.73,14.74,39.25,40.23,54.25,65.45.19.32.64.06.49-.26-10.5-24.08-25.42-49.71-48.03-64.33,18.1,2.04,36.31,2.5,54.44,1.43,14.34,4.51,27.06,12.58,38.01,23.17,14.78,14.3,24.88,31.89,36.51,48.62.26.37.81.08.62-.33Z"/>
    </g>
  </g>
</svg>