<?xml version="1.0" encoding="UTF-8"?>
<svg id="Layer_2" data-name="Layer 2" xmlns="http://www.w3.org/2000/svg" viewBox="0 0 413.22 301.74">
  <defs>
    <style>
      .cls-1 {
        fill: #bfa1c5;
        stroke-width: 0px;
      }

      .cls-2 {
        opacity: .2;
      }
    </style>
  </defs>
  <g id="Layer_1-2" data-name="Layer 1">
    <g class="cls-2">
      <path class="cls-1" d="m296.6,252.03c-47.63,14.15-83.53,14.16-106.72.02-17.95-10.95-21.12-26.77-21.15-26.93l-.05-.25.16-.2c10.03-12.91,22.66-19.86,37.53-20.65,42.41-2.26,90,46.6,90.47,47.09l.64.67-.88.26Zm-106.1-.92c15.67,9.54,46.57,17.27,104.88.11-5.86-5.85-49.73-48.17-88.95-46.09-14.46.77-26.75,7.5-36.55,20.01.47,2.01,4.29,16.02,20.61,25.96Z"/>
      <path class="cls-1" d="m295.39,251.78l-.02-1.12c-39.11.68-124.95-25.41-125.81-25.68l-.33,1.08c.87.26,86.87,26.41,126.16,25.73Z"/>
      <path class="cls-1" d="m204.8,299.44c-.26.05-25.87,4.63-52.89.76-35.9-5.14-57.96-22.78-63.81-51.01l-.04-.22.12-.19c.11-.18,11.26-17.68,32.61-18.06,25.39-.44,53.78,22.39,84.38,67.86l.48.71-.84.15Zm-52.76-.36c24.08,3.45,47.05.15,51.7-.61-30.18-44.64-58.08-67.06-82.92-66.64-19.56.33-30.33,15.49-31.57,17.35,7.34,34.84,38.18,46.37,62.79,49.9Z"/>
      <path class="cls-1" d="m410.13,274.51c-.72.02-72.43,2.23-101.9-26.22-9.37-9.05-13.61-20.32-12.57-33.48l.02-.29.25-.15c.18-.11,18.22-10.68,43.45-4.33,25.99,6.54,49.96,27.94,71.22,63.61l.48.82-.95.03Zm-101.12-27.03c27.28,26.33,91.51,26.09,100.13,25.92-20.97-34.89-44.52-55.84-70-62.26-23.18-5.85-40.15,2.83-42.38,4.05-.92,12.7,3.2,23.54,12.26,32.28Z"/>
      <path class="cls-1" d="m409.21,272.86c-74.23-10.48-111.65-57.53-112.02-58l-.89.69c.37.48,38.08,47.88,112.75,58.42l.16-1.11Z"/>
      <path class="cls-1" d="m215.79,113.31h-.08s-.08,0-.08,0c-21.78-2.9-32.83-14.97-32.83-35.87,0-32.64,27.67-76.19,27.95-76.63l.52-.82.45.86c16.74,32.16,25.23,58.42,25.23,78.04,0,30.57-20.95,34.38-21.16,34.41Zm-31.87-35.87c0,20.22,10.69,31.91,31.77,34.74,1.36-.27,20.15-4.59,20.15-33.29,0-19.27-8.29-45.05-24.65-76.65-3.81,6.17-27.26,45.36-27.26,75.19Z"/>
      <path class="cls-1" d="m215.99,111.72c-31.57-20.65-4.51-109.54-4.23-110.44l-1.07-.33c-1.14,3.69-27.58,90.6,4.69,111.71l.61-.94Z"/>
      <path class="cls-1" d="m330.03,27.55c-9.82,52.2-34.05,74.71-52.63,84.41-20.17,10.52-38.28,8.64-38.46,8.61l-.29-.03-.14-.26c-3.8-7.05-5.72-14.06-5.72-20.84,0-47.81,95.59-72.3,96.56-72.54l.85-.21-.16.86Zm-90.68,91.93c2.39.19,19.09,1.12,37.58-8.55,18.24-9.54,41.99-31.63,51.82-82.72-9.52,2.55-94.85,26.69-94.85,71.23,0,6.51,1.83,13.25,5.45,20.04Z"/>
      <path class="cls-1" d="m329.02,28.72l-.51-1c-41.13,21.12-89.13,90.75-89.61,91.45l.93.63c.48-.7,48.32-70.09,89.2-91.09Z"/>
      <path class="cls-1" d="m412.75,140.61c-22.29,39.45-46.74,62.02-72.67,67.09-24.21,4.73-40.89-8.23-41.05-8.36l-.16-.13-.04-.2c-2.47-12.18.71-22.84,9.45-31.54,27.68-27.6,103.23-27.7,103.99-27.7h.96s-.47.84-.47.84Zm-112.86,57.97c1.74,1.29,17.52,12.4,39.98,8.02,25.41-4.96,49.44-27.06,71.43-65.69-8.91.11-76.57,1.78-102.23,27.36-6.59,6.57-9.94,14.28-9.94,22.91,0,2.38.26,4.87.76,7.41Z"/>
      <path class="cls-1" d="m0,247.44l.25,1.55c1.94-.31,195.34-31.88,276.58-101.73l-1.02-1.19C194.9,215.62,1.94,247.13,0,247.44Z"/>
      <path class="cls-1" d="m106.59,223.13l.18,1.55c5.16-.6,17.26-18.68,18.61-20.74l-1.3-.86c-4.99,7.54-14.15,19.67-17.49,20.05Z"/>
      <path class="cls-1" d="m55.62,236.35l.98,1.21c10.1-8.18,11.9-18.99,11.98-19.44l-1.55-.24c-.01.11-1.79,10.68-11.4,18.47Z"/>
      <path class="cls-1" d="m51.67,237.16l.37,1.52c11.81-2.84,35.97,10.93,36.22,11.06l.78-1.35c-1.01-.59-24.95-14.22-37.37-11.23Z"/>
      <path class="cls-1" d="m108.83,222.69l.72,1.39c10.25-5.3,59.14,1.63,59.63,1.7l.22-1.56c-2.03-.28-49.88-7.06-60.57-1.53Z"/>
      <path class="cls-1" d="m105.42,223.56l.88,1.3c4.8-3.25,117.77-79.77,133.37-104.43l-1.32-.84c-15.43,24.38-131.75,103.17-132.92,103.96Z"/>
      <path class="cls-1" d="m214.96,113c5.03,15.45,6,25.06,6.01,25.16l1.56-.16c0-.1-1-9.85-6.09-25.48l-1.49.48Z"/>
      <path class="cls-1" d="m248.54,216.43c8.52.1,49.38-16.11,51.12-16.8l-.58-1.46c-.43.17-42.31,16.79-50.53,16.7v1.56Z"/>
      <path class="cls-1" d="m278.15,207.7c7.77.72,17.5,7.72,17.6,7.79l.92-1.27c-.41-.3-10.18-7.32-18.38-8.08l-.15,1.56Z"/>
      <path class="cls-1" d="m67.13,218.66l-.28.03-.19-.2c-.12-.12-11.86-12.5-11.86-34.68,0-21.44,10.55-44.49,31.35-68.53l.58-.67.36.81c.14.32,14.09,32.19,14.09,60.21h0c0,25.9-11.46,40.38-34.05,43.02Zm-11.2-34.85c0,20.18,9.88,32.04,11.36,33.7,21.75-2.65,32.77-16.74,32.77-41.87,0-25.28-11.47-53.77-13.64-58.94-20.23,23.58-30.49,46.16-30.49,67.11Z"/>
      <path class="cls-1" d="m89.53,153.16c0-10.63-.81-22.96-2.73-37.24l-1.11.15c11.6,86.07-18.33,100.79-18.63,100.93l.46,1.02c1.06-.48,22.01-10.68,22.01-64.86Z"/>
      <path class="cls-1" d="m150.03,182.81c-10.9,19.53-27.96,24.36-28.13,24.41l-.29.08-.23-.19c-6.33-5.41-10.72-12.15-13.04-20.03-12.38-41.94,37.13-105.09,37.64-105.72l.63-.8.34.96c1.59,4.52,3.04,9.01,4.31,13.33,10.98,37.22,10.57,66.82-1.23,87.96Zm-40.61,3.95c2.24,7.57,6.43,14.06,12.47,19.29,2.24-.71,17.28-6.07,27.18-23.81,12.9-23.13,12-56.66-2.83-99.37-5.73,7.52-48.26,65.08-36.81,103.9Z"/>
      <path class="cls-1" d="m387.09,88.94c-25.52,46.72-55.02,60.55-75.27,63.93-21.98,3.66-38.15-3.87-38.32-3.95l-.25-.12-.06-.27c-3.74-17.22.14-31.18,11.47-41.35,29.6-26.56,101.27-19.14,101.99-19.06l.83.09-.4.74Zm-112.86,59.08c2.1.92,17.23,7.11,37.4,3.75,19.9-3.32,48.86-16.89,74.06-62.61-8.13-.75-72.77-5.82-100.27,18.86-8.29,7.44-12.49,16.98-12.49,28.34,0,3.67.44,7.59,1.3,11.66Z"/>
      <path class="cls-1" d="m385.71,88.59c-79.66-2.95-111.67,58.55-111.98,59.17l1,.51c.31-.62,32.02-61.48,110.94-58.56l.04-1.12Z"/>
      <path class="cls-1" d="m203.8,297.91c-111.89-12.25-114.46-48.44-114.47-48.81l-1.12.04c.01.39.51,9.62,15.09,20.44,13.32,9.88,41.54,23.01,100.38,29.45l.12-1.12Z"/>
      <path class="cls-1" d="m147.3,98.04c0-4.98-.16-10.06-.51-15.22l-1.12.07c4.56,68.42-23.57,122.82-23.86,123.36l1,.52c.26-.5,24.49-47.31,24.49-108.74Z"/>
      <path class="cls-1" d="m411.76,141.2l-.95-.6c-21.48,34.16-110.61,57.29-111.51,57.52l.28,1.09c.91-.23,90.47-23.48,112.18-58.01Z"/>
    </g>
  </g>
</svg>