<?xml version="1.0" encoding="UTF-8"?>
<svg id="Layer_2" data-name="Layer 2" xmlns="http://www.w3.org/2000/svg" viewBox="0 0 146.61 81.43">
  <defs>
    <style>
      .cls-1 {
        fill: #f4eee7;
      }

      .cls-1, .cls-2, .cls-3 {
        stroke-width: 0px;
      }

      .cls-4 {
        isolation: isolate;
      }

      .cls-3 {
        fill: #e4058c;
      }
    </style>
  </defs>
  <g id="Layer_1-2" data-name="Layer 1">
    <g>
      <circle class="cls-1" cx="73.3" cy="40.72" r="40.72"/>
      <g>
        <path class="cls-2" d="m3.77,61.64c-.14,0-.27-.05-.38-.14-.1-.11-.14-.26-.14-.45v-3.56l-2.94-5.29c-.1-.15-.18-.28-.23-.36-.05-.09-.07-.2-.07-.33,0-.19.05-.33.14-.43.11-.11.23-.16.38-.16.15,0,.28.04.38.11.09.07.17.16.23.27l2.64,4.84h.07l2.65-4.84c.06-.11.14-.2.23-.27.09-.07.22-.11.36-.11.15,0,.28.05.38.16.11.1.16.24.16.43,0,.12-.03.23-.09.33-.06.09-.14.21-.22.36l-2.94,5.29v3.56c0,.4-.21.6-.61.6Z"/>
        <path class="cls-2" d="m14.94,61.87c-.53,0-1.02-.1-1.46-.29-.45-.18-.83-.45-1.14-.81-.32-.36-.57-.81-.76-1.35-.18-.54-.27-1.16-.27-1.86v-2.56c0-.7.09-1.31.27-1.84.19-.54.44-.99.76-1.35.31-.37.69-.65,1.14-.83.44-.19.93-.29,1.46-.29s1.02.1,1.46.29c.44.18.82.46,1.14.83.33.36.58.81.76,1.35.18.53.27,1.15.27,1.84v2.56c0,.7-.09,1.32-.27,1.86s-.43.99-.76,1.35c-.32.36-.7.63-1.14.81-.45.19-.93.29-1.46.29Zm0-1.07c.36,0,.69-.06.99-.2.31-.13.58-.33.79-.6.22-.28.38-.62.51-1.03.13-.41.2-.88.2-1.43v-2.56c0-.54-.07-1.02-.2-1.43-.12-.41-.29-.74-.51-1.01-.22-.28-.48-.48-.79-.61-.3-.13-.63-.2-.99-.2s-.7.07-.99.2c-.3.14-.57.34-.79.61-.22.27-.39.6-.52,1.01-.12.41-.18.88-.18,1.43v2.56c0,.54.06,1.02.18,1.43.13.41.31.75.52,1.03.23.27.49.46.79.6.3.14.63.2.99.2Z"/>
        <path class="cls-2" d="m26.85,61.87c-.53,0-1.02-.1-1.46-.29-.45-.18-.83-.45-1.14-.81-.32-.36-.57-.81-.76-1.35-.18-.54-.27-1.16-.27-1.86v-2.56c0-.7.09-1.31.27-1.84.19-.54.44-.99.76-1.35.31-.37.69-.65,1.14-.83.44-.19.93-.29,1.46-.29.48,0,.92.08,1.32.23.4.14.73.33,1.01.54.29.22.51.45.67.7.17.24.25.46.25.65s-.05.33-.14.43c-.1.11-.23.16-.38.16-.19,0-.33-.06-.42-.18-.07-.13-.16-.27-.27-.42-.25-.38-.57-.65-.96-.81-.37-.17-.74-.25-1.08-.25s-.7.07-.99.2c-.3.14-.57.34-.79.61-.22.27-.39.6-.52,1.01-.12.41-.18.88-.18,1.43v2.56c0,.54.06,1.02.18,1.43.13.41.31.75.52,1.03.23.27.49.46.79.6.3.14.63.2.99.2.54,0,1-.13,1.39-.4.4-.26.69-.6.88-1.03v-2.58h-1.9c-.14,0-.27-.05-.38-.14-.1-.09-.14-.22-.14-.38s.05-.28.14-.38c.11-.09.23-.14.38-.14h2.49c.15,0,.28.05.38.16.11.1.16.24.16.43v3.03c0,.11-.04.26-.11.45-.07.19-.16.37-.25.52-.25.41-.65.77-1.17,1.07-.53.3-1.16.45-1.88.45Z"/>
        <path class="cls-2" d="m34.62,61.64c-.16,0-.29-.05-.4-.14-.1-.11-.14-.26-.14-.45,0-.08.02-.17.05-.27.05-.09.08-.19.11-.27l3.09-9.21c.06-.15.15-.29.29-.42.13-.13.31-.2.54-.2s.42.07.56.2c.13.12.22.26.27.42l3.11,9.21c.02.09.05.18.09.27.04.1.05.19.05.27,0,.19-.05.34-.14.45-.1.09-.23.14-.38.14-.11,0-.2-.03-.27-.07-.07-.04-.14-.08-.18-.14-.04-.06-.07-.12-.09-.18-.03-.07-.05-.14-.05-.2l-.83-2.49h-4.24l-.83,2.49c-.03.06-.05.13-.07.2-.01.06-.05.12-.09.18-.04.06-.09.11-.16.14-.07.05-.16.07-.27.07Zm5.29-4.15l-1.72-5.29h-.05l-1.72,5.29h3.48Z"/>
        <path class="cls-2" d="m54.08,61.87c-.24,0-.43-.07-.58-.2-.14-.12-.22-.26-.25-.42l-2.28-8.99s-.01-.05-.04-.11c-.01-.06-.03-.13-.05-.2-.01-.08-.03-.16-.04-.23-.01-.08-.02-.15-.02-.22,0-.19.05-.33.14-.43.09-.11.22-.16.38-.16.26,0,.44.09.54.25.09.16.17.35.22.58l1.97,8.16h.07l1.97-8.4c.04-.14.12-.28.25-.4.14-.13.33-.2.58-.2.23,0,.41.07.54.2.14.12.24.25.29.4l1.97,8.4h.07l1.97-8.16c.05-.23.12-.42.22-.58.09-.17.27-.25.52-.25.15,0,.28.05.38.16.11.1.16.24.16.43,0,.06-.01.14-.04.22-.01.07-.03.15-.04.23-.01.07-.03.14-.05.2-.03.06-.04.1-.04.11l-2.26,8.99c-.05.16-.14.3-.29.42-.14.13-.32.2-.54.2s-.42-.07-.56-.2c-.14-.12-.23-.26-.27-.42l-2.02-8.38h-.05l-2,8.38c-.05.16-.14.3-.29.42-.14.13-.32.2-.54.2Z"/>
        <path class="cls-2" d="m68.1,61.64c-.16,0-.28-.05-.38-.14-.1-.11-.14-.26-.14-.45v-9.53c0-.19.05-.33.14-.43.09-.11.22-.16.38-.16.4,0,.6.2.6.6v9.53c0,.4-.2.6-.6.6Z"/>
        <path class="cls-2" d="m76.69,61.64c-.14,0-.27-.05-.38-.14-.1-.11-.14-.26-.14-.45v-8.99h-2.56c-.16,0-.29-.05-.4-.14-.1-.11-.14-.24-.14-.4,0-.14.05-.26.14-.36.11-.11.24-.16.4-.16h6.19c.14,0,.26.05.36.16.11.1.16.22.16.36,0,.16-.05.29-.16.4-.1.1-.22.14-.36.14h-2.49v8.99c0,.4-.21.6-.61.6Z"/>
        <path class="cls-2" d="m85.22,61.64c-.16,0-.28-.05-.38-.14-.1-.11-.14-.26-.14-.45v-9.53c0-.19.05-.33.14-.43.09-.11.22-.16.38-.16.4,0,.6.2.6.6v4.08h4.62v-4.08c0-.4.2-.6.6-.6.15,0,.28.05.38.16.11.1.16.24.16.43v9.53c0,.19-.05.34-.16.45-.1.09-.23.14-.38.14-.4,0-.6-.2-.6-.6v-4.39h-4.62v4.39c0,.4-.2.6-.6.6Z"/>
        <path class="cls-2" d="m106.03,61.87c-.52,0-.99-.09-1.41-.27-.42-.18-.79-.44-1.1-.79-.3-.35-.54-.78-.72-1.3-.17-.51-.25-1.11-.25-1.79v-6.21c0-.19.05-.33.14-.43.11-.11.24-.16.4-.16.4,0,.6.2.6.6v6.21c0,1.05.22,1.82.65,2.33.44.51,1.01.76,1.7.76.33,0,.65-.06.94-.18.29-.13.53-.33.74-.58.2-.25.37-.57.49-.96.12-.38.18-.84.18-1.37v-6.21c0-.4.2-.6.6-.6.15,0,.28.05.38.16.09.1.14.24.14.43v6.21c0,.68-.09,1.27-.25,1.79-.17.52-.41.95-.72,1.3-.3.35-.66.61-1.08.79-.42.18-.89.27-1.41.27Z"/>
        <path class="cls-2" d="m114.32,61.57c-.41,0-.61-.2-.61-.6,0-.15.02-.28.07-.38.06-.09.14-.22.23-.38l4.98-8.09v-.07h-4.68c-.16,0-.28-.05-.38-.14-.1-.11-.14-.24-.14-.4,0-.14.05-.26.14-.36.09-.11.22-.16.38-.16h5.6c.4,0,.6.21.6.61,0,.14-.03.27-.07.36-.05.1-.13.23-.23.38l-4.98,8.09v.07h4.91c.15,0,.28.05.38.16.09.1.14.23.14.38,0,.14-.05.27-.14.38-.1.1-.23.14-.38.14h-5.81Z"/>
        <path class="cls-2" d="m124.73,61.64c-.16,0-.28-.05-.38-.14-.1-.11-.14-.26-.14-.45,0-.12,0-.24.02-.36.02-.13.04-.24.05-.33l1.21-8.99c0-.19.08-.35.2-.49.13-.13.29-.2.47-.2.24,0,.42.06.54.18.12.11.22.28.31.51l2.53,7.1h.05l2.55-7.1c.08-.23.19-.4.31-.51.12-.12.29-.18.52-.18.19,0,.35.07.47.2.12.14.19.3.22.49l1.21,8.99c0,.09.02.19.04.33.02.12.04.24.04.36,0,.19-.05.34-.16.45-.1.09-.22.14-.36.14-.19,0-.34-.05-.43-.14-.1-.11-.16-.23-.18-.38l-1.05-8.16h-.09l-2.33,6.64c-.14.41-.4.61-.76.61s-.61-.2-.76-.61l-2.35-6.64h-.07l-1.07,8.16c-.01.14-.07.27-.16.38-.1.09-.24.14-.43.14Z"/>
        <path class="cls-2" d="m138.99,61.64c-.16,0-.29-.05-.4-.14-.1-.11-.14-.26-.14-.45,0-.08.02-.17.05-.27.05-.09.08-.19.11-.27l3.09-9.21c.06-.15.15-.29.29-.42.13-.13.31-.2.54-.2s.42.07.56.2c.13.12.22.26.27.42l3.11,9.21c.02.09.05.18.09.27.04.1.05.19.05.27,0,.19-.05.34-.14.45-.1.09-.23.14-.38.14-.11,0-.2-.03-.27-.07-.07-.04-.14-.08-.18-.14-.04-.06-.07-.12-.09-.18-.03-.07-.05-.14-.05-.2l-.83-2.49h-4.24l-.83,2.49c-.03.06-.05.13-.07.2-.01.06-.05.12-.09.18-.04.06-.09.11-.16.14-.07.05-.16.07-.27.07Zm5.29-4.15l-1.72-5.29h-.05l-1.72,5.29h3.48Z"/>
      </g>
      <g class="cls-4">
        <path class="cls-3" d="m71.67,36.75s-10.07-3.83-10.07-14.83c0,0,10.07,2.73,10.07,14.83-1.37-5.44-5.04-11.26-8.58-12.71,0,0-.04,7.52,8.58,12.71Z"/>
        <path class="cls-3" d="m73.19,38.33s-8.35-7.81-17.98-1.35c0,0,7.38,8.45,17.98,1.35-5.45,1.83-12.36,1.58-15.39-1.1,0,0,6.57-4.46,15.39,1.1Z"/>
        <path class="cls-3" d="m73.75,38.66s8.35-7.81,17.98-1.35c0,0-7.38,8.45-17.98,1.35,5.45,1.83,12.36,1.58,15.39-1.1,0,0-6.57-4.46-15.39,1.1Z"/>
        <path class="cls-3" d="m75.45,36.75s10.07-3.83,10.07-14.83c0,0-10.07,2.73-10.07,14.83,1.37-5.44,5.04-11.26,8.58-12.71,0,0,.04,7.52-8.58,12.71Z"/>
        <path class="cls-3" d="m73.34,38.55s-6.77-9.96.4-20.51c0,0,7.48,8.91-.4,20.51,2.29-6.07,2.71-13.94.4-17.55,0,0-4.94,7.18-.4,17.55Z"/>
        <circle class="cls-3" cx="73.04" cy="40.81" r="1.21"/>
        <path class="cls-3" d="m74.7,47.35c-1.32-1.52-1.06-5.2,5.28-5.15,5.28.04,5.54,1.92,11.44,1.8s9.73-2.78,9.73-4.4c0-1.12-.64-1.81-1.37-1.81-.66,0-1.67.76-1.67.76,0,0,.34-.27,1.11-.25s.82.58.82.86c0,1.32-4.34,3.6-11.85,3.6-4.54,0-5.94-1.59-9.82-1.59s-5.11,2.46-5.11,3.71.63,2.47,1.44,2.47Z"/>
        <path class="cls-3" d="m71.91,47.35c1.32-1.52,1.06-5.2-5.28-5.15-5.28.04-5.54,1.92-11.44,1.8-6.07-.12-9.73-2.78-9.73-4.4,0-1.12.64-1.81,1.37-1.81.66,0,1.67.76,1.67.76,0,0-.34-.27-1.11-.25s-.82.58-.82.86c0,1.32,4.34,3.6,11.85,3.6,4.54,0,5.94-1.59,9.82-1.59,3.88,0,5.11,2.46,5.11,3.71s-.63,2.47-1.44,2.47Z"/>
      </g>
    </g>
  </g>
</svg>