<?xml version="1.0" encoding="UTF-8"?>
<svg id="Layer_2" data-name="Layer 2" xmlns="http://www.w3.org/2000/svg" viewBox="0 0 200 105.26">
  <defs>
    <style>
      .cls-1 {
        fill: #e4058c;
        stroke-width: 0px;
      }
    </style>
  </defs>
  <g id="Layer_2-2" data-name="Layer 2">
    <g>
      <path class="cls-1" d="m94.13,67.19s-36.16-13.75-36.16-53.26c0,0,36.16,9.8,36.16,53.26-4.92-19.54-18.1-40.44-30.81-45.65,0,0-.14,27.01,30.81,45.65Z"/>
      <path class="cls-1" d="m99.59,72.87s-29.99-28.05-64.57-4.85c0,0,26.5,30.35,64.57,4.85-19.57,6.57-44.39,5.67-55.27-3.95,0,0,23.59-16.02,55.27,3.95Z"/>
      <path class="cls-1" d="m101.6,74.05s29.99-28.05,64.57-4.85c0,0-26.5,30.35-64.57,4.85,19.57,6.57,44.39,5.67,55.27-3.95,0,0-23.59-16.02-55.27,3.95Z"/>
      <path class="cls-1" d="m107.7,67.19s36.16-13.75,36.16-53.26c0,0-36.16,9.8-36.16,53.26,4.92-19.54,18.1-40.44,30.81-45.65,0,0,.14,27.01-30.81,45.65Z"/>
      <path class="cls-1" d="m100.13,73.66s-24.31-35.77,1.44-73.66c0,0,26.86,32-1.44,73.66,8.22-21.8,9.73-50.06,1.44-63.03,0,0-17.74,25.79-1.44,63.03Z"/>
      <circle class="cls-1" cx="99.05" cy="81.77" r="4.35"/>
      <path class="cls-1" d="m105.01,105.26c-4.74-5.46-3.81-18.67,18.96-18.5,18.96.14,19.9,6.9,41.08,6.46,21.19-.43,34.94-9.98,34.94-15.8,0-4.02-2.3-6.5-4.92-6.5-2.37,0-6,2.73-6,2.73,0,0,1.22-.97,3.99-.9,2.77.07,2.94,2.08,2.94,3.09,0,4.74-15.59,12.93-42.56,12.93-16.3,0-21.33-5.71-35.27-5.71s-18.35,8.83-18.35,13.32,2.26,8.87,5.17,8.87Z"/>
      <path class="cls-1" d="m94.99,105.26c4.74-5.46,3.81-18.67-18.96-18.5-18.96.14-19.9,6.9-41.08,6.46-21.8-.43-34.94-9.98-34.94-15.8,0-4.02,2.3-6.5,4.92-6.5,2.37,0,6,2.73,6,2.73,0,0-1.22-.97-3.99-.9-2.77.07-2.94,2.08-2.94,3.09,0,4.74,15.59,12.93,42.56,12.93,16.3,0,21.33-5.71,35.27-5.71s18.35,8.83,18.35,13.32-2.26,8.87-5.17,8.87Z"/>
    </g>
  </g>
</svg>