<?xml version="1.0" encoding="UTF-8"?>
<svg id="Layer_2" data-name="Layer 2" xmlns="http://www.w3.org/2000/svg" viewBox="0 0 146 81.09">
  <defs>
    <style>
      .cls-1 {
        isolation: isolate;
      }

      .cls-2 {
        opacity: .5;
      }

      .cls-2, .cls-3 {
        fill: #fff;
        stroke-width: 0px;
      }
    </style>
  </defs>
  <g id="Layer_1-2" data-name="Layer 1">
    <g>
      <circle class="cls-2" cx="73" cy="40.55" r="40.55"/>
      <g>
        <path class="cls-3" d="m3.76,61.38c-.14,0-.27-.05-.38-.14-.1-.11-.14-.26-.14-.45v-3.54l-2.93-5.27c-.1-.15-.18-.27-.23-.36-.05-.09-.07-.2-.07-.32,0-.19.04-.33.14-.43.11-.11.23-.16.38-.16.15,0,.28.04.38.11.09.07.17.16.23.27l2.63,4.82h.07l2.64-4.82c.06-.11.13-.2.23-.27.09-.07.22-.11.36-.11.15,0,.28.05.38.16.11.1.16.24.16.43,0,.12-.03.23-.09.32-.06.09-.13.21-.22.36l-2.93,5.27v3.54c0,.4-.21.59-.61.59Z"/>
        <path class="cls-3" d="m14.87,61.62c-.53,0-1.02-.1-1.46-.29-.45-.18-.82-.45-1.13-.81-.31-.36-.57-.81-.76-1.35-.18-.54-.27-1.16-.27-1.85v-2.55c0-.69.09-1.3.27-1.83.19-.54.44-.99.76-1.35.31-.37.69-.65,1.13-.83.44-.19.93-.29,1.46-.29s1.01.1,1.46.29c.44.18.82.46,1.13.83.32.36.58.81.76,1.35.18.53.27,1.14.27,1.83v2.55c0,.7-.09,1.31-.27,1.85s-.43.99-.76,1.35c-.31.36-.69.63-1.13.81-.45.19-.93.29-1.46.29Zm0-1.06c.36,0,.69-.06.99-.2.31-.13.58-.33.79-.59.22-.27.38-.62.5-1.02.13-.4.2-.88.2-1.42v-2.55c0-.54-.07-1.01-.2-1.42-.12-.4-.29-.74-.5-1.01-.22-.27-.48-.48-.79-.61-.3-.13-.63-.2-.99-.2s-.69.07-.99.2c-.3.13-.57.34-.79.61-.22.27-.39.6-.52,1.01-.12.41-.18.88-.18,1.42v2.55c0,.54.06,1.02.18,1.42.13.41.31.75.52,1.02.22.27.49.46.79.59.3.13.63.2.99.2Z"/>
        <path class="cls-3" d="m26.74,61.62c-.53,0-1.02-.1-1.46-.29-.45-.18-.82-.45-1.13-.81-.31-.36-.57-.81-.76-1.35-.18-.54-.27-1.16-.27-1.85v-2.55c0-.69.09-1.3.27-1.83.19-.54.44-.99.76-1.35.31-.37.69-.65,1.13-.83.44-.19.93-.29,1.46-.29.48,0,.92.08,1.31.23.4.14.73.32,1.01.54.29.22.51.45.67.7.17.24.25.46.25.65s-.05.32-.14.43c-.1.11-.22.16-.38.16-.19,0-.33-.06-.41-.18-.07-.13-.16-.27-.27-.41-.25-.38-.57-.65-.95-.81-.37-.17-.73-.25-1.08-.25s-.69.07-.99.2c-.3.13-.57.34-.79.61-.22.27-.39.6-.52,1.01-.12.41-.18.88-.18,1.42v2.55c0,.54.06,1.02.18,1.42.13.41.31.75.52,1.02.22.27.49.46.79.59.3.13.63.2.99.2.54,0,1-.13,1.38-.4.4-.26.69-.6.88-1.02v-2.57h-1.89c-.14,0-.27-.04-.38-.14-.1-.09-.14-.22-.14-.38s.04-.28.14-.38c.11-.09.23-.14.38-.14h2.48c.15,0,.28.05.38.16.11.1.16.24.16.43v3.02c0,.11-.04.26-.11.45-.07.19-.16.37-.25.52-.25.41-.64.76-1.17,1.06-.53.3-1.15.45-1.87.45Z"/>
        <path class="cls-3" d="m34.48,61.38c-.16,0-.29-.05-.4-.14-.1-.11-.14-.26-.14-.45,0-.08.02-.17.05-.27.04-.09.08-.18.11-.27l3.07-9.17c.06-.15.15-.29.29-.41.13-.13.31-.2.54-.2s.42.07.56.2c.13.12.22.26.27.41l3.09,9.17c.02.09.05.18.09.27.04.1.05.19.05.27,0,.19-.05.34-.14.45-.1.09-.22.14-.38.14-.11,0-.2-.03-.27-.07-.07-.04-.13-.08-.18-.14-.04-.06-.07-.12-.09-.18-.03-.07-.04-.13-.05-.2l-.83-2.48h-4.23l-.83,2.48c-.03.06-.05.13-.07.2-.01.06-.04.12-.09.18-.04.06-.09.11-.16.14-.07.04-.16.07-.27.07Zm5.27-4.14l-1.71-5.27h-.05l-1.71,5.27h3.47Z"/>
        <path class="cls-3" d="m53.85,61.62c-.24,0-.43-.07-.58-.2-.13-.12-.22-.26-.25-.41l-2.27-8.95s-.01-.04-.04-.11c-.01-.06-.03-.13-.05-.2-.01-.08-.03-.16-.04-.23-.01-.08-.02-.15-.02-.22,0-.19.04-.33.14-.43.09-.11.22-.16.38-.16.26,0,.44.09.54.25.09.16.17.35.22.58l1.96,8.13h.07l1.96-8.36c.04-.14.12-.27.25-.4.14-.13.33-.2.58-.2.22,0,.4.07.54.2.14.12.24.25.29.4l1.96,8.36h.07l1.96-8.13c.04-.22.12-.42.22-.58.09-.17.27-.25.52-.25.15,0,.28.05.38.16.11.1.16.24.16.43,0,.06-.01.13-.04.22-.01.07-.03.15-.04.23-.01.07-.03.14-.05.2-.03.06-.04.1-.04.11l-2.25,8.95c-.05.16-.14.3-.29.41-.13.13-.31.2-.54.2s-.41-.07-.56-.2c-.14-.12-.23-.26-.27-.41l-2.01-8.34h-.05l-2,8.34c-.05.16-.14.3-.29.41-.13.13-.31.2-.54.2Z"/>
        <path class="cls-3" d="m67.82,61.38c-.16,0-.28-.05-.38-.14-.1-.11-.14-.26-.14-.45v-9.49c0-.19.04-.33.14-.43.09-.11.22-.16.38-.16.4,0,.59.2.59.59v9.49c0,.4-.2.59-.59.59Z"/>
        <path class="cls-3" d="m76.38,61.38c-.14,0-.27-.05-.38-.14-.1-.11-.14-.26-.14-.45v-8.95h-2.55c-.16,0-.29-.04-.4-.14-.1-.11-.14-.24-.14-.4,0-.14.04-.26.14-.36.11-.11.24-.16.4-.16h6.17c.14,0,.26.05.36.16.11.1.16.22.16.36,0,.16-.05.29-.16.4-.1.1-.22.14-.36.14h-2.48v8.95c0,.4-.21.59-.61.59Z"/>
        <path class="cls-3" d="m84.86,61.38c-.16,0-.28-.05-.38-.14-.1-.11-.14-.26-.14-.45v-9.49c0-.19.04-.33.14-.43.09-.11.22-.16.38-.16.4,0,.59.2.59.59v4.06h4.6v-4.06c0-.4.2-.59.59-.59.15,0,.28.05.38.16.11.1.16.24.16.43v9.49c0,.19-.05.34-.16.45-.1.09-.22.14-.38.14-.4,0-.59-.2-.59-.59v-4.37h-4.6v4.37c0,.4-.2.59-.59.59Z"/>
        <path class="cls-3" d="m105.59,61.62c-.52,0-.98-.09-1.4-.27-.42-.18-.79-.44-1.1-.79-.3-.35-.54-.78-.72-1.29-.17-.51-.25-1.11-.25-1.78v-6.19c0-.19.04-.33.14-.43.11-.11.24-.16.4-.16.4,0,.59.2.59.59v6.19c0,1.04.22,1.82.65,2.32.44.5,1.01.76,1.69.76.33,0,.65-.06.94-.18.29-.13.53-.32.74-.58.2-.25.36-.57.49-.95.12-.38.18-.84.18-1.37v-6.19c0-.4.2-.59.59-.59.15,0,.28.05.38.16.09.1.14.24.14.43v6.19c0,.67-.09,1.27-.25,1.78-.17.52-.41.95-.72,1.29-.3.35-.66.61-1.08.79-.42.18-.89.27-1.4.27Z"/>
        <path class="cls-3" d="m113.85,61.31c-.41,0-.61-.2-.61-.59,0-.15.02-.28.07-.38.06-.09.13-.22.23-.38l4.96-8.06v-.07h-4.66c-.16,0-.28-.04-.38-.14-.1-.11-.14-.24-.14-.4,0-.14.04-.26.14-.36.09-.11.22-.16.38-.16h5.57c.4,0,.59.21.59.61,0,.14-.03.27-.07.36-.05.1-.13.22-.23.38l-4.96,8.06v.07h4.89c.15,0,.28.05.38.16.09.1.14.22.14.38,0,.14-.05.27-.14.38-.1.1-.22.14-.38.14h-5.79Z"/>
        <path class="cls-3" d="m124.21,61.38c-.16,0-.28-.05-.38-.14-.1-.11-.14-.26-.14-.45,0-.12,0-.24.02-.36.02-.13.04-.24.05-.32l1.2-8.95c0-.19.08-.35.2-.49.13-.13.29-.2.47-.2.24,0,.42.06.54.18.12.11.22.28.31.5l2.52,7.07h.05l2.54-7.07c.08-.22.18-.4.31-.5.12-.12.29-.18.52-.18.19,0,.35.07.47.2.12.13.19.3.22.49l1.2,8.95c0,.09.02.19.04.32.02.12.04.24.04.36,0,.19-.05.34-.16.45-.1.09-.22.14-.36.14-.19,0-.34-.05-.43-.14-.1-.11-.16-.23-.18-.38l-1.04-8.13h-.09l-2.32,6.62c-.14.41-.4.61-.76.61s-.61-.2-.76-.61l-2.34-6.62h-.07l-1.06,8.13c-.01.14-.07.27-.16.38-.1.09-.24.14-.43.14Z"/>
        <path class="cls-3" d="m138.41,61.38c-.16,0-.29-.05-.4-.14-.1-.11-.14-.26-.14-.45,0-.08.02-.17.05-.27.04-.09.08-.18.11-.27l3.07-9.17c.06-.15.15-.29.29-.41.13-.13.31-.2.54-.2s.42.07.56.2c.13.12.22.26.27.41l3.09,9.17c.02.09.05.18.09.27.04.1.05.19.05.27,0,.19-.05.34-.14.45-.1.09-.22.14-.38.14-.11,0-.2-.03-.27-.07-.07-.04-.13-.08-.18-.14-.04-.06-.07-.12-.09-.18-.03-.07-.04-.13-.05-.2l-.83-2.48h-4.23l-.83,2.48c-.03.06-.05.13-.07.2-.01.06-.04.12-.09.18-.04.06-.09.11-.16.14-.07.04-.16.07-.27.07Zm5.27-4.14l-1.71-5.27h-.05l-1.71,5.27h3.47Z"/>
      </g>
      <g class="cls-1">
        <path class="cls-3" d="m71.37,36.59s-10.03-3.81-10.03-14.76c0,0,10.03,2.72,10.03,14.76-1.36-5.42-5.02-11.22-8.54-12.66,0,0-.04,7.49,8.54,12.66Z"/>
        <path class="cls-3" d="m72.89,38.17s-8.31-7.78-17.91-1.35c0,0,7.35,8.42,17.91,1.35-5.43,1.82-12.31,1.58-15.33-1.1,0,0,6.54-4.44,15.33,1.1Z"/>
        <path class="cls-3" d="m73.45,38.5s8.31-7.78,17.91-1.35c0,0-7.35,8.42-17.91,1.35,5.43,1.82,12.31,1.58,15.33-1.1,0,0-6.54-4.44-15.33,1.1Z"/>
        <path class="cls-3" d="m75.14,36.59s10.03-3.81,10.03-14.76c0,0-10.03,2.72-10.03,14.76,1.36-5.42,5.02-11.22,8.54-12.66,0,0,.04,7.49-8.54,12.66Z"/>
        <path class="cls-3" d="m73.04,38.39s-6.74-9.92.4-20.42c0,0,7.45,8.87-.4,20.42,2.28-6.05,2.69-13.89.39-17.47,0,0-4.92,7.15-.39,17.47Z"/>
        <circle class="cls-3" cx="72.74" cy="40.64" r="1.2"/>
        <path class="cls-3" d="m74.39,47.15c-1.31-1.51-1.05-5.18,5.26-5.13,5.26.04,5.52,1.91,11.39,1.8s9.69-2.77,9.69-4.38c0-1.12-.64-1.81-1.37-1.81-.66,0-1.66.76-1.66.76,0,0,.33-.27,1.11-.25s.82.58.82.85c0,1.31-4.32,3.58-11.8,3.58-4.52,0-5.91-1.58-9.78-1.58s-5.09,2.45-5.09,3.7.62,2.46,1.43,2.46Z"/>
        <path class="cls-3" d="m71.61,47.15c1.31-1.51,1.05-5.18-5.26-5.13-5.26.04-5.52,1.91-11.39,1.8-6.04-.12-9.69-2.77-9.69-4.38,0-1.12.64-1.81,1.37-1.81.66,0,1.66.76,1.66.76,0,0-.33-.27-1.11-.25s-.82.58-.82.85c0,1.31,4.32,3.58,11.8,3.58,4.52,0,5.91-1.58,9.78-1.58,3.86,0,5.09,2.45,5.09,3.7s-.62,2.46-1.43,2.46Z"/>
      </g>
    </g>
  </g>
</svg>